<?xml version="1.0" standalone="no"?>
<!DOCTYPE svg PUBLIC "-//W3C//DTD SVG 20010904//EN"
 "http://www.w3.org/TR/2001/REC-SVG-20010904/DTD/svg10.dtd">
<svg version="1.0" xmlns="http://www.w3.org/2000/svg"
 width="1640.000000pt" height="624.000000pt" viewBox="0 0 1640.000000 624.000000"
 preserveAspectRatio="xMidYMid meet">

<g transform="translate(0.000000,624.000000) scale(0.100000,-0.100000)"
fill="#000000" stroke="none">
<path d="M2962 4895 c-27 -22 -32 -34 -32 -70 0 -36 5 -48 31 -69 51 -43 118
-30 145 28 30 61 -4 124 -72 133 -33 4 -45 1 -72 -22z"/>
<path d="M3549 4751 c-38 -39 -39 -80 0 -123 24 -27 36 -33 69 -33 58 0 92 34
92 90 0 89 -98 129 -161 66z"/>
<path d="M2474 4710 c-58 -23 -73 -113 -28 -155 53 -49 144 -22 159 46 17 77
-57 139 -131 109z"/>
<path d="M4005 4405 c-19 -18 -25 -35 -25 -69 0 -37 5 -48 31 -70 78 -66 185
13 145 107 -17 42 -41 57 -91 57 -25 0 -43 -8 -60 -25z"/>
<path d="M2073 4305 c-37 -16 -53 -42 -53 -85 0 -44 16 -69 54 -85 112 -47
190 117 81 169 -39 19 -41 19 -82 1z"/>
<path d="M10196 4215 l-26 -24 0 -753 c1 -796 -1 -771 47 -796 33 -18 59 -14
92 14 l31 26 0 754 0 755 -25 24 c-32 33 -83 33 -119 0z"/>
<path d="M14759 4211 l-29 -29 0 -293 0 -292 -58 55 c-32 31 -76 65 -97 76
-150 76 -356 68 -485 -18 -203 -135 -299 -392 -244 -658 43 -212 190 -377 379
-427 169 -44 338 6 459 135 l46 49 0 -60 c0 -54 3 -64 29 -90 50 -50 121 -32
140 36 4 17 8 360 7 763 l-1 734 -28 24 c-39 33 -81 31 -118 -5z m-262 -613
c111 -41 208 -165 233 -297 51 -276 -99 -514 -335 -529 -91 -6 -162 15 -231
67 -205 154 -220 515 -29 690 31 27 78 59 108 70 73 28 178 28 254 -1z"/>
<path d="M4822 4143 c-7 -3 -19 -18 -27 -33 -13 -25 -15 -130 -15 -725 l0
-697 29 -29 29 -29 320 0 c359 0 428 8 539 61 48 23 89 54 143 108 87 88 135
172 176 306 26 85 28 101 28 280 0 166 -3 200 -22 269 -71 256 -229 425 -447
481 -48 12 -126 15 -400 14 -187 0 -346 -3 -353 -6z m648 -164 c147 -23 260
-108 325 -242 51 -108 68 -191 69 -342 1 -207 -46 -355 -146 -461 -112 -119
-169 -134 -510 -134 l-248 0 0 588 c0 324 3 592 7 595 10 11 432 8 503 -4z"/>
<path d="M9503 4116 c-35 -16 -45 -37 -45 -104 0 -61 32 -92 97 -92 58 0 91
16 106 51 15 38 6 107 -18 130 -25 25 -100 33 -140 15z"/>
<path d="M1875 3798 c-73 -40 -73 -138 0 -173 62 -29 135 17 135 86 0 36 -28
77 -61 88 -39 13 -49 13 -74 -1z"/>
<path d="M6807 3760 c-117 -37 -231 -135 -291 -250 -57 -109 -71 -168 -70
-315 0 -114 4 -140 27 -210 77 -231 264 -375 488 -375 125 0 259 60 341 153
l38 42 0 -58 c0 -51 4 -62 29 -88 44 -43 104 -37 133 14 16 28 22 970 7 1030
-11 44 -54 69 -101 60 -42 -8 -60 -37 -67 -104 l-6 -61 -22 30 c-32 44 -136
109 -210 132 -85 26 -215 26 -296 0z m300 -162 c280 -104 329 -562 82 -758
-154 -122 -384 -82 -499 85 -94 137 -105 348 -26 502 81 159 275 234 443 171z"/>
<path d="M8458 3761 c-75 -24 -145 -70 -202 -131 -26 -28 -48 -50 -50 -50 -1
0 -2 17 -3 38 -1 79 -4 93 -23 112 -26 26 -89 27 -121 1 l-24 -19 -3 -512 -3
-511 30 -30 c38 -37 82 -39 116 -4 14 13 26 34 26 47 1 13 2 172 3 353 2 310
4 333 23 376 47 106 160 179 290 187 99 6 157 -11 209 -63 74 -75 77 -90 83
-513 l6 -374 24 -19 c35 -28 77 -24 112 10 l29 29 0 357 c0 286 -3 371 -16
432 -28 138 -81 216 -181 265 -60 29 -77 33 -167 35 -78 2 -114 -1 -158 -16z"/>
<path d="M11202 3766 c-196 -48 -364 -226 -407 -431 -84 -401 194 -743 585
-722 257 14 457 187 514 444 71 319 -106 629 -404 708 -67 18 -216 18 -288 1z
m303 -179 c93 -43 167 -124 201 -219 79 -225 -11 -476 -204 -566 -50 -24 -69
-27 -157 -27 -89 0 -106 4 -158 29 -261 127 -314 523 -97 720 78 70 154 97
270 93 69 -2 97 -8 145 -30z"/>
<path d="M12667 3760 c-117 -37 -231 -135 -291 -250 -57 -109 -71 -168 -70
-315 0 -114 4 -140 27 -210 77 -231 264 -375 488 -375 125 0 259 60 341 153
l38 42 0 -58 c0 -51 4 -62 29 -88 44 -43 104 -37 133 14 16 28 22 970 7 1030
-11 44 -54 69 -101 60 -42 -8 -60 -37 -67 -104 l-6 -61 -22 30 c-32 44 -136
109 -210 132 -85 26 -215 26 -296 0z m300 -162 c280 -104 329 -562 82 -758
-154 -122 -384 -82 -499 85 -94 137 -105 348 -26 502 81 159 275 234 443 171z"/>
<path d="M9503 3746 l-28 -24 -1 -499 c-1 -274 3 -511 7 -528 18 -64 85 -84
136 -41 l28 24 3 504 c1 276 0 513 -3 525 -15 61 -91 82 -142 39z"/>
<path d="M1995 3226 c-75 -33 -70 -150 8 -175 113 -38 179 122 72 174 -39 18
-41 18 -80 1z"/>
<path d="M3954 2873 c-32 -6 -64 -45 -70 -85 -5 -29 -1 -40 22 -66 61 -66 164
-32 164 53 0 49 -15 74 -55 91 -19 8 -36 13 -37 13 -2 -1 -13 -4 -24 -6z"/>
<path d="M2335 2756 c-34 -34 -40 -68 -20 -109 16 -34 50 -57 85 -57 83 0 124
104 64 164 -36 35 -95 36 -129 2z"/>
<path d="M3403 2576 c-61 -53 -21 -158 61 -158 68 0 114 52 101 114 -15 65
-108 91 -162 44z"/>
<path d="M2843 2552 c-53 -41 -49 -128 7 -157 83 -43 168 24 140 110 -19 59
-99 85 -147 47z"/>
</g>
</svg>
